# xmcd CD database file
#
# Track frame offsets:
#	150
#	32497
#	51033
#	74719
#	105198
#	130092
#	154542
#	190029
#
# Disc length: 2902 seconds
#
# Revision: 0
# Processed by: cddbd v1.5.1PL2 Copyright (c) Steve Scherf et al.
# Submitted via: CDex 1.51
#
DISCID=5d0b5408
DTITLE=Patricia Julien Project - Glee
DYEAR=2006
DGENRE=Jazz
TTITLE0=Mei Ling
TTITLE1=To Meg
TTITLE2=Without
TTITLE3=Glee
TTITLE4=X-Walk
TTITLE5=Make Me
TTITLE6=Blues for Patricia
TTITLE7=Snafu
EXTD=YEAR: 2006
EXTT0=
EXTT1=
EXTT2=
EXTT3=
EXTT4=
EXTT5=
EXTT6=
EXTT7=
PLAYORDER=
